<?xml version="1.0" encoding="UTF-8"?>
<svg id="Layer_1" data-name="Layer 1" xmlns="http://www.w3.org/2000/svg" viewBox="0 0 469.16 466.25">
  <defs>
    <style>
      .cls-1 {
        fill: #fdfdfd;
      }

      .cls-1, .cls-2 {
        stroke-width: 0px;
      }

      .cls-2 {
        fill: #a8bc28;
      }
    </style>
  </defs>
  <path class="cls-1" d="M306.93,60.43c-11.9.64-23.8,1.27-35.69,1.95-1.4.08-2.02-.44-1.73-1.76.38-1.74.85-3.46,1.43-5.14.28-.81.91-1.49,1.4-2.22,4.24-6.38,5.11-9.62,4.63-18.01-5.04,2.05-10.03,3.73-14.71,6.03-13.11,6.44-23.11,16.42-31.21,28.41-10.31,15.26-16.78,32.21-21.58,49.85-2.62,9.62-5.19,19.27-5.92,29.29-.87,12.07,2.18,23,9.49,32.6,4.06,5.34,8.51,10.39,12.92,15.45,7.94,9.09,14.86,18.78,18.66,30.41,2.83,8.66,4.17,17.55,4.17,26.63,0,.98-.83,1.96-1.65,2.85-7.79-26.46-22.77-48.1-42.13-66.9-19.38-18.81-41.68-32.88-67.99-40.73.56,11.67,1.1,23.07,1.66,34.74-3.46.65-6.88,1.28-10.3,1.92-1.1.21-2.19.47-3.29.67-9.89,1.82-16.49,7.57-20.22,16.8-2.24,5.54-4.51,11.08-6.78,16.6-2.13,5.17-5.43,9.15-10.35,12.14-3.76,2.29-6.86,5.68-10.15,8.7-.52.47-.75,1.57-.67,2.33.77,6.63,2.42,13.02,5.49,18.98,5.25,10.22,14.02,15.51,25.01,17.34,7.4,1.23,14.89,1.96,22.34,2.93,1.11.15,2.2.39,3.29.66,9.93,2.53,14.16,7.58,15.63,18.64.06.89.11,1.77.17,2.66-5.28.01-10.55.07-15.83.03-37.75-.26-75.5-.45-113.25-.94-4-.05-8.08-1.68-11.92-3.11-3.12-1.16-4.76-4.13-5.21-7.31-.84-5.92-1.61-11.89-1.86-17.85-1.04-24.22-1.13-48.46.44-72.66.73-11.32,1.78-22.62,4.66-33.66.55-2.1,1.5-3.12,3.66-3.65,12.7-3.14,25.62-3.62,38.59-3.4,15.59.27,31.18.98,46.77.95,6.41-.01,12.82-1.42,19.22-2.27,1.09-.14,2.14-.64,3.18-1.05,6.6-2.62,10.19-7.41,10.56-14.57.16-3.11.43-6.21.68-9.73,10.52,3.92,20.86,7.77,31.57,11.76.45-5.16,1.2-10.06,1.24-14.96.1-15.67.12-31.34-.17-47.01-.31-17.03-1.32-34.08.43-51.06.87-8.47,2.84-16.82,4.29-25.23.32-1.84,1.31-2.76,3.14-3.37,9.05-2.98,18.38-4.15,27.82-4.53,6.47-.26,12.95-.11,19.43-.17C234.25.29,252.24-.04,270.22,0c6.27.02,12.66.38,18.79,1.64,8.97,1.84,13.69,7.55,14.61,16.69,1.06,10.58,1.78,21.19,2.65,31.79.03.4.12.79.18,1.18.16,3.04.32,6.09.47,9.13Z"/>
  <path class="cls-2" d="M306.93,60.43c-.16-3.04-.32-6.09-.47-9.13,10.97-.39,19.01,4.35,23.83,14.15,2.85,5.8,5.26,11.81,7.69,17.8.73,1.8,1.68,2.32,3.55,2.27,9.19-.24,18.39-.37,27.59-.44,2.47-.02,4.96.19,7.41.53,9.39,1.29,14.02,6.08,15.33,15.63,2.36,17.23-1.29,32.85-12.18,46.64-3.2,4.05-6.11,8.34-9.57,13.1,1.49,0,2.3.02,3.12,0,14.79-.33,29.58-.88,44.37-.94,12.4-.05,24.82.59,36.88,3.75,9.94,2.6,8.11.33,9.92,10.16,2.07,11.2,3.41,22.61,4.07,33.98.77,13.24.8,26.54.56,39.81-.3,16.38-1.47,32.71-5.02,48.81-.88,3.98-2.76,5.76-6.57,6.89-24.25,7.19-48.33,6.01-72.29-1.19-25.64-7.71-48.33-20.94-69.04-37.66-29.31-23.67-53.16-51.86-69.86-85.81-6.16-12.53-10.8-25.59-13.03-39.43-.13-.79-.22-1.58-.31-2.38-.03-.27.03-.55.22-.9,13.36,33.12,35.06,58.91,66.33,76.7-.31-5.42-.54-10.52-.91-15.61-.52-7.1,1.53-13.19,5.87-18.95,4.26-5.65,7.68-11.94,11.37-18.02.71-1.17,1.25-1.62,2.75-1.45,10.28,1.13,20.56,1.67,30.77-.67,10.65-2.44,18.98-8.23,24.13-17.81,4.02-7.49,7.15-15.46,10.67-23.21-3.78-3.07-7.43-6.03-11.67-9.48h8.31c.37-1.6.94-3.43,1.16-5.3.07-.57-.68-1.45-1.28-1.86-4.93-3.33-10.53-4.39-16.35-4.81-8.05-.58-16.09-1.22-24.12-1.97-1.96-.18-3.9-.83-5.79-1.45-2.48-.8-4.55-2.38-5.2-4.93-3.16-12.5-12.06-20.17-22.23-26.81Z"/>
  <path class="cls-2" d="M148.84,304.26c-.06-.89-.11-1.77-.17-2.66,4.48-2.05,9.34-3.52,13.36-6.25,17.46-11.84,29.36-27.99,35.87-48.08,1.05-3.23,2.05-6.47,3.07-9.67,2.96,25.23-6.09,46.63-21.94,66.09,6.8,0,12.76.14,18.71-.03,17.82-.52,35.65-1.35,53.43.76,8.27.98,16.4,2.66,24.17,5.77,16.81,6.72,26.87,18.71,29.69,36.88,3.26,21.04,3.95,42.17,2.89,63.36-.59,11.88-1.84,23.73-3.01,35.57-.37,3.71-1.52,7.34-2.18,11.03-.28,1.6-1.14,2.4-2.61,2.68-7.91,1.5-15.78,3.42-23.76,4.38-18.13,2.18-36.37,2.41-54.61,1.92-16.54-.44-33.04-1.43-49.36-4.58-4.84-.93-7.25-2.91-8.22-7.98-2.14-11.18-3.84-22.41-4.06-33.75-.44-23.02-.48-46.04-.42-69.07.04-14.47.55-28.94.85-43.41.02-.94,0-1.88,0-2.99h-11.7Z"/>
</svg>