<?xml version="1.0" encoding="UTF-8"?>
<svg id="Layer_1" data-name="Layer 1" xmlns="http://www.w3.org/2000/svg" viewBox="0 0 2019.56 466.25">
  <defs>
    <style>
      .cls-1 {
        fill: #fdfdfd;
      }

      .cls-1, .cls-2, .cls-3 {
        stroke-width: 0px;
      }

      .cls-2 {
        fill: #f3f3f3;
      }

      .cls-3 {
        fill: #a8bc28;
      }
    </style>
  </defs>
  <g>
    <path class="cls-1" d="M306.93,60.43c-11.9.64-23.8,1.27-35.69,1.95-1.4.08-2.02-.44-1.73-1.76.38-1.74.85-3.46,1.43-5.14.28-.81.91-1.49,1.4-2.22,4.24-6.38,5.11-9.62,4.63-18.01-5.04,2.05-10.03,3.73-14.71,6.03-13.11,6.44-23.11,16.42-31.21,28.41-10.31,15.26-16.78,32.21-21.58,49.85-2.62,9.62-5.19,19.27-5.92,29.29-.87,12.07,2.18,23,9.49,32.6,4.06,5.34,8.51,10.39,12.92,15.45,7.94,9.09,14.86,18.78,18.66,30.41,2.83,8.66,4.17,17.55,4.17,26.63,0,.98-.83,1.96-1.65,2.85-7.79-26.46-22.77-48.1-42.13-66.9-19.38-18.81-41.68-32.88-67.99-40.73.56,11.67,1.1,23.07,1.66,34.74-3.46.65-6.88,1.28-10.3,1.92-1.1.21-2.19.47-3.29.67-9.89,1.82-16.49,7.57-20.22,16.8-2.24,5.54-4.51,11.08-6.78,16.6-2.13,5.17-5.43,9.15-10.35,12.14-3.76,2.29-6.86,5.68-10.15,8.7-.52.47-.75,1.57-.67,2.33.77,6.63,2.42,13.02,5.49,18.98,5.25,10.22,14.02,15.51,25.01,17.34,7.4,1.23,14.89,1.96,22.34,2.93,1.11.15,2.2.39,3.29.66,9.93,2.53,14.16,7.58,15.63,18.64.06.89.11,1.77.17,2.66-5.28.01-10.55.07-15.83.03-37.75-.26-75.5-.45-113.25-.94-4-.05-8.08-1.68-11.92-3.11-3.12-1.16-4.76-4.13-5.21-7.31-.84-5.92-1.61-11.89-1.86-17.85-1.04-24.22-1.13-48.46.44-72.66.73-11.32,1.78-22.62,4.66-33.66.55-2.1,1.5-3.12,3.66-3.65,12.7-3.14,25.62-3.62,38.59-3.4,15.59.27,31.18.98,46.77.95,6.41-.01,12.82-1.42,19.22-2.27,1.09-.14,2.14-.64,3.18-1.05,6.6-2.62,10.19-7.41,10.56-14.57.16-3.11.43-6.21.68-9.73,10.52,3.92,20.86,7.77,31.57,11.76.45-5.16,1.2-10.06,1.24-14.96.1-15.67.12-31.34-.17-47.01-.31-17.03-1.32-34.08.43-51.06.87-8.47,2.84-16.82,4.29-25.23.32-1.84,1.31-2.76,3.14-3.37,9.05-2.98,18.38-4.15,27.82-4.53,6.47-.26,12.95-.11,19.43-.17C234.25.29,252.24-.04,270.22,0c6.27.02,12.66.38,18.79,1.64,8.97,1.84,13.69,7.55,14.61,16.69,1.06,10.58,1.78,21.19,2.65,31.79.03.4.12.79.18,1.18.16,3.04.32,6.09.47,9.13Z"/>
    <path class="cls-3" d="M306.93,60.43c-.16-3.04-.32-6.09-.47-9.13,10.97-.39,19.01,4.35,23.83,14.15,2.85,5.8,5.26,11.81,7.69,17.8.73,1.8,1.68,2.32,3.55,2.27,9.19-.24,18.39-.37,27.59-.44,2.47-.02,4.96.19,7.41.53,9.39,1.29,14.02,6.08,15.33,15.63,2.36,17.23-1.29,32.85-12.18,46.64-3.2,4.05-6.11,8.34-9.57,13.1,1.49,0,2.3.02,3.12,0,14.79-.33,29.58-.88,44.37-.94,12.4-.05,24.82.59,36.88,3.75,9.94,2.6,8.11.33,9.92,10.16,2.07,11.2,3.41,22.61,4.07,33.98.77,13.24.8,26.54.56,39.81-.3,16.38-1.47,32.71-5.02,48.81-.88,3.98-2.76,5.76-6.57,6.89-24.25,7.19-48.33,6.01-72.29-1.19-25.64-7.71-48.33-20.94-69.04-37.66-29.31-23.67-53.16-51.86-69.86-85.81-6.16-12.53-10.8-25.59-13.03-39.43-.13-.79-.22-1.58-.31-2.38-.03-.27.03-.55.22-.9,13.36,33.12,35.06,58.91,66.33,76.7-.31-5.42-.54-10.52-.91-15.61-.52-7.1,1.53-13.19,5.87-18.95,4.26-5.65,7.68-11.94,11.37-18.02.71-1.17,1.25-1.62,2.75-1.45,10.28,1.13,20.56,1.67,30.77-.67,10.65-2.44,18.98-8.23,24.13-17.81,4.02-7.49,7.15-15.46,10.67-23.21-3.78-3.07-7.43-6.03-11.67-9.48h8.31c.37-1.6.94-3.43,1.16-5.3.07-.57-.68-1.45-1.28-1.86-4.93-3.33-10.53-4.39-16.35-4.81-8.05-.58-16.09-1.22-24.12-1.97-1.96-.18-3.9-.83-5.79-1.45-2.48-.8-4.55-2.38-5.2-4.93-3.16-12.5-12.06-20.17-22.23-26.81Z"/>
    <path class="cls-3" d="M148.84,304.26c-.06-.89-.11-1.77-.17-2.66,4.48-2.05,9.34-3.52,13.36-6.25,17.46-11.84,29.36-27.99,35.87-48.08,1.05-3.23,2.05-6.47,3.07-9.67,2.96,25.23-6.09,46.63-21.94,66.09,6.8,0,12.76.14,18.71-.03,17.82-.52,35.65-1.35,53.43.76,8.27.98,16.4,2.66,24.17,5.77,16.81,6.72,26.87,18.71,29.69,36.88,3.26,21.04,3.95,42.17,2.89,63.36-.59,11.88-1.84,23.73-3.01,35.57-.37,3.71-1.52,7.34-2.18,11.03-.28,1.6-1.14,2.4-2.61,2.68-7.91,1.5-15.78,3.42-23.76,4.38-18.13,2.18-36.37,2.41-54.61,1.92-16.54-.44-33.04-1.43-49.36-4.58-4.84-.93-7.25-2.91-8.22-7.98-2.14-11.18-3.84-22.41-4.06-33.75-.44-23.02-.48-46.04-.42-69.07.04-14.47.55-28.94.85-43.41.02-.94,0-1.88,0-2.99h-11.7Z"/>
  </g>
  <g>
    <path class="cls-3" d="M1814.66,307.53c-.83.44-1.56.27-2.25.27-16.23.01-32.47-.02-48.7.05-1.74,0-2.7-.56-3.61-2.03-11.82-19.2-23.73-38.35-35.55-57.55-.92-1.49-1.89-2-3.62-1.99-17.27.07-34.55.04-51.82.04-.48,0-.96.03-1.44,0-.9-.05-1.33.33-1.29,1.26.03.64,0,1.28,0,1.92,0,18.56,0,37.11,0,55.67,0,2.81.26,2.64-2.53,2.64-13.19,0-26.39,0-39.58,0-.24,0-.48,0-.72,0q-1.78-.05-1.83-1.91c0-.4,0-.8,0-1.2,0-59.67,0-119.33,0-179,0-3.65-.45-3.21,3.16-3.21,39.02-.01,78.05,0,117.07-.02,9.23,0,18.37.66,27.33,2.97,7.36,1.9,14.18,4.92,20.05,9.88,6.55,5.54,10.75,12.59,13.29,20.7,1.75,5.6,2.74,11.35,3.22,17.17.86,10.4.73,20.78-1.29,31.06-1.5,7.62-4.11,14.78-8.87,21.03-5.56,7.28-12.97,11.99-21.39,15.27-.89.35-1.79.69-2.7.99-.88.28-.89.77-.44,1.44.31.46.62.93.93,1.4,13.65,20.12,27.29,40.23,40.93,60.36.57.85,1.29,1.62,1.65,2.8ZM1706.92,161.22c-12.79,0-25.59,0-38.38,0-2.12,0-2.15.03-2.15,2.08,0,14.72,0,29.43,0,44.15,0,1.98.03,2.02,1.94,2.02,24.63,0,49.25,0,73.88-.02,2.41,0,4.77-.38,7.11-.97,5.47-1.38,8.94-4.73,10.19-10.28.16-.7.34-1.4.48-2.1,1.03-5.46,1.11-10.97.73-16.49-.21-3.03-.61-6.04-1.67-8.93-1.81-4.92-5.22-7.89-10.43-8.82-2.93-.53-5.88-.63-8.84-.63-10.95-.02-21.91,0-32.86,0Z"/>
    <path class="cls-3" d="M1825.33,214.91c0-29.83,0-59.66,0-89.48,0-3.31-.3-2.94,2.97-2.94,39.34,0,78.68.02,118.01-.02,8.77,0,17.4.87,25.78,3.52,17.76,5.61,30.15,17.24,37.79,34.08,4.5,9.92,6.87,20.42,8.22,31.18,1.61,12.9,1.84,25.84.91,38.79-.96,13.38-3.14,26.52-8.51,38.93-9.05,20.91-24.82,33.4-47.24,37.46-4.81.87-9.65,1.36-14.54,1.36-40.38.01-80.75.01-121.13.01-2.25,0-2.26-.02-2.26-2.45,0-30.15,0-60.3,0-90.44ZM1870.79,215.4c0,10.4,0,20.79,0,31.19,0,6.96,0,13.92,0,20.87,0,1.87.04,1.87,1.81,1.92.32,0,.64,0,.96,0,21.83,0,43.66,0,65.49,0,2.56,0,5.1-.1,7.66-.4,11.24-1.3,18.89-7.16,22.9-17.77,1.91-5.05,2.84-10.32,3.32-15.67,1.31-14.7,1.35-29.39-.41-44.06-.69-5.75-2.1-11.32-4.88-16.46-3.19-5.89-7.94-9.95-14.31-12.05-4.22-1.39-8.59-1.77-13.01-1.77-22.39,0-44.78,0-67.17,0-2.35,0-2.35.02-2.36,2.36,0,.4,0,.8,0,1.2v50.62Z"/>
    <path class="cls-3" d="M1542.22,307.8c-18.07,0-36.14.03-54.21-.01-8.89-.02-17.72-.81-26.4-2.87-5-1.18-9.81-2.87-14.35-5.31-10.04-5.4-16.65-13.63-19.6-24.6-3.94-14.67-3.91-29.43.1-44.09,3.45-12.64,11.54-21.3,23.55-26.4,6.6-2.8,13.52-4.31,20.61-5.22,7.08-.91,14.18-1.03,21.3-1.02,20.87.02,41.74,0,62.61,0,.56,0,1.12.02,1.68,0,1.52-.07,1.62-.13,1.56-1.69-.2-5.45-.87-10.84-2.5-16.07-3.36-10.81-10.87-16.78-21.87-18.65-3.57-.61-7.16-.66-10.76-.66-30.47,0-60.93,0-91.4,0-3.75,0-3.25.32-3.25-3.14-.02-10.88,0-21.75,0-32.63,0-.56.03-1.12,0-1.68-.05-.91.34-1.33,1.26-1.28.48.03.96,0,1.44,0,33.26,0,66.53.02,99.79-.01,9.24,0,18.37.88,27.24,3.56,21.08,6.38,34.67,20.29,41.13,41.29,2.43,7.91,3.7,16.03,4.31,24.27.4,5.43.44,10.86.44,16.3-.02,32.31,0,64.62-.01,96.93,0,3.3.31,2.98-2.92,2.98-19.91,0-39.82,0-59.73,0h0ZM1521.79,229.88c-2.48,0-4.96,0-7.43,0-8.95.03-17.9.04-26.86.09-2.65.02-5.23.56-7.75,1.38-4.31,1.4-6.99,4.28-8.19,8.64-.73,2.64-1.05,5.33-1.2,8.05-.26,4.73-.09,9.44,1.23,14.03,1.38,4.79,4.48,7.8,9.41,8.88,3.14.69,6.32.89,9.52.89,22.06,0,44.12,0,66.18,0,.4,0,.8-.02,1.2,0,.89.05,1.36-.31,1.3-1.25-.02-.4,0-.8,0-1.2,0-12.31,0-24.62,0-36.94,0-2.77.07-2.57-2.65-2.57-11.59,0-23.18,0-34.77,0Z"/>
    <path class="cls-3" d="M891.36,232.35h-57.81c-.48,0-.96,0-1.44,0-2.46.05-2.76-.58-2.35,2.81.61,5.01,1.43,9.97,3.06,14.76.49,1.43,1.05,2.85,1.7,4.22,4.24,9.01,11.49,13.83,21.2,15.27,2.94.44,5.89.49,8.85.49,28.87,0,57.73,0,86.6,0,3.69,0,3.39-.63,3.39,3.5,0,10.48,0,20.95,0,31.43,0,.56-.03,1.12,0,1.68.05.91-.35,1.33-1.27,1.28-.48-.02-.96,0-1.44,0-31.66,0-63.33-.02-94.99,0-8.04,0-15.97-.8-23.7-3.05-18.31-5.34-31.23-16.92-39.14-34.19-4.41-9.61-6.79-19.78-8.16-30.21-1.84-13.93-1.99-27.91-.89-41.9.98-12.49,3.22-24.73,8.08-36.36,5.29-12.68,13.42-23,25.28-30.18,7.42-4.49,15.52-7.1,24.05-8.43,4.83-.76,9.69-1.03,14.57-1.03,31.66.02,63.33,0,94.99.01,2.66,0,2.62-.33,2.62,2.57,0,10.88,0,21.75,0,32.63,0,.48-.02.96,0,1.44.03.91-.41,1.3-1.31,1.26-.64-.03-1.28,0-1.92,0-29.03,0-58.05,0-87.08,0-3.69,0-7.35.15-10.95,1-8.54,2.02-14.85,6.86-18.63,14.83-2.77,5.85-4.05,12.11-4.71,18.5-.18,1.79-.11,1.8,1.78,1.84.64.01,1.28,0,1.92,0,38.54,0,77.08,0,115.62,0,.48,0,.96,0,1.44,0,2.88.03,2.88-.41,2.88,2.84,0,10.08,0,20.15,0,30.23,0,.48-.02.96,0,1.44.02.88-.35,1.34-1.29,1.29-.64-.04-1.28,0-1.92,0-19.67,0-39.34,0-59.01,0Z"/>
    <path class="cls-3" d="M794.2,122.61c.13.94-.38,1.61-.68,2.33-24.93,59.92-49.87,119.84-74.83,179.75-1.56,3.74-.55,3.1-4.56,3.11-15.59.03-31.18.02-46.77,0-2.71,0-2.32.35-3.42-2.33-24.51-60.01-49.02-120.02-73.51-180.03-.35-.86-.95-1.68-.8-2.71.76-.44,1.57-.24,2.34-.24,14.87-.01,29.74-.01,44.62,0,2.87,0,2.35-.2,3.34,2.39,12.82,33.77,25.64,67.55,38.43,101.34,3.88,10.24,8.19,20.31,11.7,30.69.54,1.59.96,3.22,1.46,4.82.11.35.14.87.66.83.51-.03.52-.54.63-.9,2.15-7.12,4.92-14.03,7.56-20.97,14.8-38.93,30.39-77.54,45.58-116.31.47-1.21.94-1.94,2.5-1.93,14.87.07,29.74.04,44.62.05.38,0,.77.08,1.15.12Z"/>
    <path class="cls-3" d="M1360.46,307.8c-15.43,0-30.86.03-46.3-.01-9.1-.02-18.01-1.36-26.56-4.54-16.85-6.28-28.32-18.13-35.3-34.52-4.27-10.02-6.46-20.56-7.71-31.32-1.26-10.83-1.4-21.71-.91-32.58.65-14.37,2.73-28.49,8.16-41.93,5.34-13.22,13.72-23.93,26.11-31.26,7.32-4.33,15.28-6.85,23.65-8.14,4.99-.77,10.01-1.02,15.05-1.01,31.34.02,62.69,0,94.03.01,3.25,0,2.9-.35,2.9,2.99.01,10.96,0,21.91,0,32.87,0,.56-.02,1.12,0,1.68.02.79-.35,1.18-1.14,1.18-.72,0-1.44.01-2.16.01-28.71,0-57.41,0-86.12,0-4.16,0-8.31.13-12.38,1.14-7.58,1.89-13.19,6.25-16.79,13.2-2.88,5.56-4.18,11.55-4.83,17.71-1.4,13.24-1.38,26.5-.41,39.77.43,5.91,1.23,11.77,3.26,17.39,1.23,3.41,2.82,6.62,5.15,9.42,4.54,5.46,10.53,8.14,17.43,9.08,2.86.39,5.73.47,8.61.47,28.79-.01,57.57,0,86.36,0,3.36,0,3.02-.4,3.02,3.12.01,10.72,0,21.43,0,32.15,0,.64-.03,1.28,0,1.92.04.94-.44,1.27-1.32,1.23-.64-.03-1.28,0-1.92,0-16.63,0-33.26,0-49.89,0h0Z"/>
    <path class="cls-3" d="M1061.16,122.49c30.55,0,61.09,0,91.64,0,3.31,0,2.96-.33,2.96,2.94.01,10.64,0,21.27,0,31.91,0,.24,0,.48,0,.72-.02,2.31-.02,2.33-2.38,2.33-17.11,0-34.23,0-51.34,0-5.36,0-10.72,0-16.07,0-2.01,0-2.01.03-2.05,1.93-.01.64,0,1.28,0,1.92,0,46.79,0,93.58,0,140.37,0,3.65.4,3.19-3.18,3.19-13.11.02-26.23.01-39.34,0-3.51,0-3.12.38-3.12-3.02,0-47.03,0-94.06-.01-141.09,0-3.8.55-3.3-3.29-3.31-21.67-.02-43.34,0-65.01,0-.4,0-.8,0-1.2,0-2.27-.02-2.28-.02-2.31-2.19-.01-1.2,0-2.4,0-3.6,0-9.68,0-19.36,0-29.03,0-.64.02-1.28,0-1.92-.01-.79.33-1.18,1.14-1.16.64.02,1.28,0,1.92,0,30.55,0,61.09,0,91.64,0Z"/>
    <path class="cls-2" d="M1155.83,374.39c.51,14.11-11.79,27.46-27.15,27.41-15.26-.05-27.33-12.17-27.46-27.41-.13-14.98,12.88-27.32,27.34-27.33,14.91,0,27.73,12.93,27.28,27.32ZM1152.56,374.77c.21-13.31-10.23-24.01-23.46-24.37-13.2-.36-24.37,10.38-24.61,23.52-.24,13.35,10.22,24.25,23.51,24.61,13.79.38,24.69-11.1,24.55-23.76Z"/>
    <path class="cls-2" d="M941.26,382.4c4.04,6.24,7.94,12.26,11.85,18.3-2.96.86-3.46.7-4.93-1.6-3.15-4.91-6.34-9.79-9.42-14.74-.77-1.24-1.65-1.71-3.09-1.65-2.53.11-5.08.03-7.77.03,0,4.28,0,8.35,0,12.42,0,1.6-.05,3.2.01,4.8.05,1.28-.78,1.15-1.59,1.14-.79,0-1.7.16-1.61-1.13.03-.48,0-.96,0-1.44,0-15.99,0-31.98,0-47.97,0-.48.03-.96,0-1.44-.05-.78.22-1.19,1.07-1.18,4.63.05,9.31-.3,13.89.2,8.57.93,15.31,9.81,14.49,18.56-.67,7.11-4.56,11.91-10.91,14.87-.29.13-.61.2-.9.32-.29.12-.58.27-1.09.51ZM927.89,365.28c0,4.16-.01,8.31,0,12.47,0,1.65.03,1.68,1.74,1.69,2.72.01,5.44.06,8.15-.06,6.86-.3,12.66-5.94,13.11-12.64.52-7.73-4.23-14.07-11.46-15.35-3.26-.57-6.54-.23-9.8-.3-1.69-.04-1.72.03-1.73,1.71-.02,4.16,0,8.31,0,12.47Z"/>
    <path class="cls-2" d="M1538.68,374.37c0-8.15,0-16.31,0-24.46,0-1.93-.33-1.96,1.92-1.96,4.33,0,8.65.21,12.75,1.74,9.16,3.42,14.64,10.18,16.44,19.62,1.83,9.59-.79,18.04-7.95,24.9-4.28,4.11-9.55,5.98-15.32,6.6-2.14.23-4.31.18-6.46.3-.99.06-1.44-.24-1.4-1.32.07-2.08.02-4.16.02-6.24,0-6.4,0-12.79,0-19.19ZM1541.88,374.48c0,6.87,0,13.74,0,20.62,0,.56.01,1.12,0,1.68-.01.8.35,1.17,1.17,1.09,1.27-.12,2.55-.18,3.82-.35,4.01-.53,7.79-1.71,11.06-4.19,11.05-8.36,12.25-25.6,2.48-35.43-4.62-4.64-10.36-6.38-16.71-6.56-1.79-.05-1.82-.04-1.82,1.81-.01,7.11,0,14.22,0,21.33Z"/>
    <path class="cls-2" d="M1209.82,374.47c0-8.24,0-16.47,0-24.71,0-1.79.03-1.82,1.85-1.8,3.43.03,6.85.13,10.23.99,10.24,2.61,16.51,9.29,18.82,19.34,2.49,10.8-.65,20.08-9.26,27.27-4,3.34-8.81,4.75-13.9,5.28-1.98.21-3.99.22-5.99.26-1.71.03-1.74-.01-1.75-1.67-.02-3.12,0-6.24,0-9.36,0-5.2,0-10.4,0-15.59ZM1213.02,374.36c0,6.24-.02,12.47.01,18.71,0,1.5-.65,3.42.29,4.4,1.1,1.14,3.04.21,4.57.03,5.2-.6,9.88-2.41,13.62-6.3,4.3-4.47,6.5-9.79,6.7-15.96.34-10.44-6.08-20.54-16.81-23.05-2.11-.49-4.23-.8-6.4-.84-1.96-.03-1.98-.05-1.98,1.91-.01,7.03,0,14.07,0,21.1Z"/>
    <path class="cls-2" d="M1507.32,367.7c0,5.52,0,11.03,0,16.55-.02,8.78-7.08,16.47-15.51,17.26-11.07,1.04-18.3-7.37-19.21-14.85-.07-.55-.1-1.12-.1-1.67,0-11.75-.02-23.5,0-35.25,0-1.84.07-1.76,1.87-1.81,1.62-.04,1.31,1,1.31,1.92,0,11.03,0,22.06.02,33.09,0,1.35.04,2.73.26,4.06,1.09,6.39,7.15,11.34,13.84,11.41,6.6.06,12.57-4.67,13.9-11.01.31-1.5.37-3.01.37-4.53,0-11.03,0-22.06,0-33.09,0-1.87.03-1.79,1.83-1.84,1.2-.03,1.46.44,1.45,1.55-.05,6.08-.02,12.15-.02,18.23Z"/>
    <path class="cls-2" d="M1741.64,372.96c5.06,0,9.85,0,14.64,0,2.4,0,4.8-.02,7.19,0,1.66.02,1.67.04,1.67,1.74,0,.39.06.8-.22,1.19-.73.31-1.54.16-2.33.16-6.32.01-12.63,0-18.95.01-1.99,0-2.01.02-2.02,1.9-.01,6-.01,11.99,0,17.99,0,1.95.02,1.98,1.95,1.98,6.08.01,12.15,0,18.23,0,.4,0,.8,0,1.2,0q2.13.02,2.14,1.53c0,1.61,0,1.63-2.05,1.64-6.72,0-13.43.02-20.15,0-1.43,0-3.23.59-4.19-.27-1.09-.98-.38-2.86-.38-4.33-.04-15.19-.02-30.38-.02-45.57,0-.56.04-1.12,0-1.68-.07-.88.21-1.31,1.18-1.3,8.39.05,16.78.07,25.17.1.07,0,.15.06.29.12.24.9.22,1.82-.03,2.92-2.08,0-4.15,0-6.22,0-5.2,0-10.39,0-15.59,0-.86,0-1.54,0-1.53,1.2.03,6.79.02,13.58.02,20.69Z"/>
    <path class="cls-2" d="M857.04,400.88c6.57-18.05,13.07-35.89,19.56-53.73.15-.02.31-.05.46-.07,6.5,17.87,12.99,35.73,19.47,53.56-.44.68-1.05.39-1.56.46-1.22.18-1.82-.33-2.24-1.53-1.93-5.5-3.97-10.96-5.96-16.43q-.85-2.32-3.34-2.32c-4.63,0-9.27.06-13.9-.04-1.37-.03-1.97.42-2.41,1.67-1.9,5.42-3.9,10.81-5.87,16.21q-.95,2.61-4.21,2.22ZM868.99,377.45h15.71c-2.64-7.15-5.03-14.15-7.9-21.48-2.7,7.41-5.2,14.3-7.81,21.48Z"/>
    <path class="cls-2" d="M1034.42,400.87c6.57-18.04,13.06-35.87,19.55-53.69.16-.01.33-.02.49-.04,6.49,17.85,12.97,35.69,19.42,53.43-.36.74-.91.45-1.35.53-1.47.29-2.09-.46-2.55-1.79-1.94-5.58-4.03-11.11-5.97-16.68-.46-1.31-1.03-1.89-2.54-1.86-4.87.11-9.75.11-14.62,0-1.41-.03-1.95.51-2.38,1.73-1.91,5.42-3.89,10.82-5.85,16.22q-.94,2.59-4.21,2.15ZM1062.09,377.51c-2.63-7.24-5.15-14.18-7.86-21.66-2.73,7.48-5.27,14.47-7.89,21.66h15.75Z"/>
    <path class="cls-2" d="M1404.79,400.87c6.57-18.03,13.05-35.85,19.54-53.67l.51-.03c6.49,17.85,12.98,35.69,19.43,53.44-.39.71-.93.41-1.37.49-1.47.28-2.08-.47-2.54-1.79-1.92-5.5-3.93-10.97-5.94-16.44-.75-2.03-.34-2.07-2.83-2.06-4.71.01-9.43,0-14.14,0-1.94,0-1.96.01-2.66,1.93-1.95,5.32-3.88,10.65-5.82,15.97q-.94,2.59-4.2,2.15ZM1424.85,356.55c-3.06,6.9-5.6,13.86-8.12,21.06h5.41c1.76,0,3.52.05,5.27-.02,1.62-.07,3.29.34,4.97-.33-2.54-6.99-5.04-13.85-7.54-20.72Z"/>
    <path class="cls-2" d="M831.66,354.53c-.14.18-.27.38-.44.54-1.93,1.82-1.52,1.55-3.26.26-13.51-10.07-32.94-3.64-37.45,12.55-2.73,9.79.23,19.84,9.2,26.27,8.3,5.96,19.52,5.87,27.82-.07q2.23-1.59,4.1.4c-6.99,8.15-24.54,11-36.19.42-11.97-10.86-12.28-29.01-.56-40.23,11.65-11.16,29.32-8.5,36.79-.14Z"/>
    <path class="cls-2" d="M1680.88,348.17c.69-.36,1.42-.21,2.13-.21,3.36-.02,6.72.1,10.07-.03,6.46-.26,13.25,4.44,15.87,10.82,2.63,6.38,1.14,13.78-3.66,18.66-3.49,3.55-7.66,5.37-12.64,5.33-2-.02-4-.02-5.99,0-2.85.04-2.75-.53-2.75,2.63,0,4.24,0,8.47,0,12.71,0,.4,0,.8,0,1.2-.03,1.83-.11,1.83-1.87,1.84-1.09,0-1.41-.45-1.31-1.44.05-.48,0-.96,0-1.44,0-15.83,0-31.65,0-47.48,0-.87-.14-1.76.14-2.61ZM1683.91,365.39c0,4.23.02,8.47-.02,12.7-.01,1.04.34,1.4,1.37,1.38,2.79-.06,5.59-.09,8.38-.04,5.65.1,12.77-5.02,13.26-13.01.46-7.49-4.42-13.81-11.56-15.03-3.18-.54-6.37-.22-9.56-.28-1.83-.04-1.86.02-1.87,1.83-.02,4.15,0,8.31,0,12.46Z"/>
    <path class="cls-2" d="M1271.2,374.46c0-8.07,0-16.15,0-24.22,0-2.52-.13-2.29,2.37-2.29,7.51,0,15.02,0,22.54,0,1.61,0,2.31,1.09,1.75,2.6-.18.47-.55.51-.95.51-1.04.01-2.08,0-3.12,0-5.75,0-11.51,0-17.26,0-2.13,0-2.15.02-2.16,2.02-.01,6-.01,11.99,0,17.99,0,1.85.03,1.87,2.07,1.87,6.63,0,13.27.02,19.9-.01,1.04,0,1.64.14,1.57,1.41-.09,1.65,0,1.69-1.74,1.69-6.15.02-12.31,0-18.46,0-.56,0-1.12.05-1.68,0-1.2-.12-1.74.28-1.68,1.59.09,1.99.02,4,.02,5.99,0,4.24.04,8.47-.03,12.71-.02,1.27.42,1.62,1.65,1.61,6.71-.05,13.43-.03,20.14-.02,1.85,0,1.78.04,1.78,1.88,0,1.14-.53,1.3-1.47,1.29-3.28-.03-6.55-.01-9.83-.01-4.48,0-8.95,0-13.43,0-1.96,0-1.98-.02-1.99-1.94,0-8.23,0-16.47,0-24.7Z"/>
    <path class="cls-2" d="M1374.62,354.59c-.25.14-.5.32-.78.45q-1.66.73-2.7-.83c-3.24-4.85-9.97-5.12-13.46-.55-2.33,3.06-2.15,7.57.49,10.36,2.07,2.19,4.64,3.64,7.44,4.67,4.12,1.52,7.76,3.75,10.65,7.1,5.23,6.05,4.9,15.24-.57,20.98-5.93,6.23-15.31,6.58-21.46,1.42-2.44-2.05-4.27-4.52-5.17-7.62q-.61-2.12,1.45-2.89c.22-.08.45-.14.68-.2.72.37.57,1.1.73,1.67,1.45,5.25,5.93,9.02,11.19,9.38,5.63.39,10.59-2.55,12.74-7.55,2.13-4.97.86-10.81-3.17-14.49-2.39-2.18-5.1-3.83-8.14-4.93-2.72-.99-5.29-2.26-7.49-4.18-3.73-3.26-5.13-7.34-3.69-12.08,1.41-4.62,4.77-7.26,9.55-7.99,4.64-.71,10.34,2.43,11.71,7.26Z"/>
    <path class="cls-2" d="M1600.01,374.31c0-8.16,0-16.31,0-24.47,0-1.85.02-1.88,1.77-1.88,7.76-.01,15.51-.01,23.27,0,1.44,0,2.27,1.42,1.62,2.7-.27.53-.81.41-1.26.41-3.2,0-6.4,0-9.59,0-3.6,0-7.2-.01-10.79,0-1.75,0-1.8.03-1.8,1.66-.02,6.16-.02,12.31,0,18.47,0,1.72.05,1.75,1.96,1.75,6.64.01,13.27,0,19.91.01,1.69,0,1.63.05,1.67,1.76.02,1.07-.38,1.35-1.39,1.34-5.12-.04-10.23-.02-15.35-.02-1.68,0-3.36-.02-5.04,0-1.7.02-1.74.04-1.75,1.72-.02,4.8,0,9.6,0,14.39,0,1.44.06,2.88-.02,4.32-.07,1.21.46,1.47,1.56,1.46,6.08-.04,12.15-.02,18.23-.02.56,0,1.12,0,1.68,0,2.09.02,2.36.34,2.06,2.31-.09.58-.33.85-.9.85-.32,0-.64,0-.96,0-7.68,0-15.35,0-23.03,0-1.79,0-1.82-.03-1.82-1.84-.01-8.32,0-16.63,0-24.95Z"/>
    <path class="cls-2" d="M1822.23,351.08c-1.46,0-2.88,0-4.3,0-2.48,0-4.96.03-7.43-.01-1.08-.02-1.68.28-1.57,1.47.05.55,0,1.12,0,1.68,0,14.71,0,29.42-.01,44.13,0,.86.19,1.75-.2,2.66-.38.03-.77.09-1.16.09-1.77,0-1.79-.01-1.79-1.88,0-14.79,0-29.58,0-44.37,0-.56,0-1.12,0-1.68-.03-2.06-.03-2.08-2.11-2.09-3.28-.01-6.56-.05-9.83.02-1.12.02-1.58-.26-1.53-1.46.08-1.61.02-1.68,1.54-1.68,8.87-.02,17.75-.01,26.62,0,1.92,0,1.92.03,1.9,1.99,0,.31-.06.62-.11,1.13Z"/>
    <path class="cls-2" d="M996.24,376.11c0,7.75-.01,15.5.01,23.25,0,1.09-.07,1.84-1.5,1.77-1.66-.09-1.72-.01-1.72-1.73-.01-7.99,0-15.98,0-23.97,0-7.35,0-14.7,0-22.06,0-2.55.02-2.29-2.38-2.29-3.2,0-6.39-.05-9.59.02-1.2.03-1.52-.41-1.45-1.53.06-.94-.03-1.66,1.34-1.65,9.11.06,18.22.05,27.32,0,1.32,0,1.36.63,1.38,1.61.02,1.05-.14,1.6-1.41,1.57-3.27-.09-6.55-.04-9.83-.03-2.16,0-2.17.02-2.17,2.26,0,7.59,0,15.18,0,22.77Z"/>
    <path class="cls-2" d="M1062.93,338.24c-.09.52-.11.92-.22,1.29-1.15,3.99-4.33,5.15-7.79,2.83-1.12-.75-2.16-1.64-3.48-2.07-1.48-.48-2.23-.22-3.01,1.07q-.95,1.56-2.92,1.21c0-.15-.03-.32,0-.47,1.2-4.85,4.46-6.07,8.55-3.21.85.59,1.66,1.24,2.65,1.6,1.75.64,2.63.5,3.31-1.16.6-1.45,1.49-1.39,2.91-1.09Z"/>
    <path class="cls-2" d="M1496.75,335c-2.27,1.74-4.53,3.5-6.82,5.22-1.05.79-1.07.75-3.53.54,1.42-2.21,3.28-3.93,4.88-5.87.27-.32.7-.34,1.1-.34,1.42,0,2.84,0,4.27,0,.03.15.07.3.1.45Z"/>
  </g>
</svg>