<?xml version="1.0" encoding="UTF-8"?>
<svg id="Layer_2" data-name="Layer 2" xmlns="http://www.w3.org/2000/svg" viewBox="0 0 1429.96 280.86">
  <defs>
    <style>
      .cls-1 {
        fill: #a8bc28;
      }

      .cls-1, .cls-2 {
        stroke-width: 0px;
      }

      .cls-2 {
        fill: #fff;
      }
    </style>
  </defs>
  <g id="Layer_1-2" data-name="Layer 1">
    <g>
      <path class="cls-1" d="M1225.06,185.09c-.83.44-1.56.27-2.25.27-16.23.01-32.47-.02-48.7.05-1.74,0-2.7-.56-3.61-2.03-11.82-19.2-23.73-38.35-35.55-57.55-.92-1.49-1.89-2-3.62-1.99-17.27.07-34.55.04-51.82.04-.48,0-.96.03-1.44,0-.9-.05-1.33.33-1.29,1.26.03.64,0,1.28,0,1.92,0,18.56,0,37.11,0,55.67,0,2.81.26,2.64-2.53,2.64-13.19,0-26.39,0-39.58,0-.24,0-.48,0-.72,0q-1.78-.05-1.83-1.91c0-.4,0-.8,0-1.2,0-59.67,0-119.33,0-179,0-3.65-.45-3.21,3.16-3.21,39.02-.01,78.05,0,117.07-.02,9.23,0,18.37.66,27.33,2.97,7.36,1.9,14.18,4.92,20.05,9.88,6.55,5.54,10.75,12.59,13.29,20.7,1.75,5.6,2.74,11.35,3.22,17.17.86,10.4.73,20.78-1.29,31.06-1.5,7.62-4.11,14.78-8.87,21.03-5.56,7.28-12.97,11.99-21.39,15.27-.89.35-1.79.69-2.7.99-.88.28-.89.77-.44,1.44.31.46.62.93.93,1.4,13.65,20.12,27.29,40.23,40.93,60.36.57.85,1.29,1.62,1.65,2.8ZM1117.33,38.77c-12.79,0-25.59,0-38.38,0-2.12,0-2.15.03-2.15,2.08,0,14.72,0,29.43,0,44.15,0,1.98.03,2.02,1.94,2.02,24.63,0,49.25,0,73.88-.02,2.41,0,4.77-.38,7.11-.97,5.47-1.38,8.94-4.73,10.19-10.28.16-.7.34-1.4.48-2.1,1.03-5.46,1.11-10.97.73-16.49-.21-3.03-.61-6.04-1.67-8.93-1.81-4.92-5.22-7.89-10.43-8.82-2.93-.53-5.88-.63-8.84-.63-10.95-.02-21.91,0-32.86,0Z"/>
      <path class="cls-1" d="M1235.73,92.47c0-29.83,0-59.66,0-89.48,0-3.31-.3-2.94,2.97-2.94,39.34,0,78.68.02,118.01-.02,8.77,0,17.4.87,25.78,3.52,17.76,5.61,30.15,17.24,37.79,34.08,4.5,9.92,6.87,20.42,8.22,31.18,1.61,12.9,1.84,25.84.91,38.79-.96,13.38-3.14,26.52-8.51,38.93-9.05,20.91-24.82,33.4-47.24,37.46-4.81.87-9.65,1.36-14.54,1.36-40.38.01-80.75.01-121.13.01-2.25,0-2.26-.02-2.26-2.45,0-30.15,0-60.3,0-90.44ZM1281.2,92.96c0,10.4,0,20.79,0,31.19,0,6.96,0,13.92,0,20.87,0,1.87.04,1.87,1.81,1.92.32,0,.64,0,.96,0,21.83,0,43.66,0,65.49,0,2.56,0,5.1-.1,7.66-.4,11.24-1.3,18.89-7.16,22.9-17.77,1.91-5.05,2.84-10.32,3.32-15.67,1.31-14.7,1.35-29.39-.41-44.06-.69-5.75-2.1-11.32-4.88-16.46-3.19-5.89-7.94-9.95-14.31-12.05-4.22-1.39-8.59-1.77-13.01-1.77-22.39,0-44.78,0-67.17,0-2.35,0-2.35.02-2.36,2.36,0,.4,0,.8,0,1.2v50.62Z"/>
      <path class="cls-1" d="M952.62,185.36c-18.07,0-36.14.03-54.21-.01-8.89-.02-17.72-.81-26.4-2.87-5-1.18-9.81-2.87-14.35-5.31-10.04-5.4-16.65-13.63-19.6-24.6-3.94-14.67-3.91-29.43.1-44.09,3.45-12.64,11.54-21.3,23.55-26.4,6.6-2.8,13.52-4.31,20.61-5.22,7.08-.91,14.18-1.03,21.3-1.02,20.87.02,41.74,0,62.61,0,.56,0,1.12.02,1.68,0,1.52-.07,1.62-.13,1.56-1.69-.2-5.45-.87-10.84-2.5-16.07-3.36-10.81-10.87-16.78-21.87-18.65-3.57-.61-7.16-.66-10.76-.66-30.47,0-60.93,0-91.4,0-3.75,0-3.25.32-3.25-3.14-.02-10.88,0-21.75,0-32.63,0-.56.03-1.12,0-1.68-.05-.91.34-1.33,1.26-1.28.48.03.96,0,1.44,0,33.26,0,66.53.02,99.79-.01,9.24,0,18.37.88,27.24,3.56,21.08,6.38,34.67,20.29,41.13,41.29,2.43,7.91,3.7,16.03,4.31,24.27.4,5.43.44,10.86.44,16.3-.02,32.31,0,64.62-.01,96.93,0,3.3.31,2.98-2.92,2.98-19.91,0-39.82,0-59.73,0h0ZM932.2,107.44c-2.48,0-4.96,0-7.43,0-8.95.03-17.9.04-26.86.09-2.65.02-5.23.56-7.75,1.38-4.31,1.4-6.99,4.28-8.19,8.64-.73,2.64-1.05,5.33-1.2,8.05-.26,4.73-.09,9.44,1.23,14.03,1.38,4.79,4.48,7.8,9.41,8.88,3.14.69,6.32.89,9.52.89,22.06,0,44.12,0,66.18,0,.4,0,.8-.02,1.2,0,.89.05,1.36-.31,1.3-1.25-.02-.4,0-.8,0-1.2,0-12.31,0-24.62,0-36.94,0-2.77.07-2.57-2.65-2.57-11.59,0-23.18,0-34.77,0Z"/>
      <path class="cls-1" d="M301.76,109.91h-57.81c-.48,0-.96,0-1.44,0-2.46.05-2.76-.58-2.35,2.81.61,5.01,1.43,9.97,3.06,14.76.49,1.43,1.05,2.85,1.7,4.22,4.24,9.01,11.49,13.83,21.2,15.27,2.94.44,5.89.49,8.85.49,28.87,0,57.73,0,86.6,0,3.69,0,3.39-.63,3.39,3.5,0,10.48,0,20.95,0,31.43,0,.56-.03,1.12,0,1.68.05.91-.35,1.33-1.27,1.28-.48-.02-.96,0-1.44,0-31.66,0-63.33-.02-94.99,0-8.04,0-15.97-.8-23.7-3.05-18.31-5.34-31.23-16.92-39.14-34.19-4.41-9.61-6.79-19.78-8.16-30.21-1.84-13.93-1.99-27.91-.89-41.9.98-12.49,3.22-24.73,8.08-36.36,5.29-12.68,13.42-23,25.28-30.18,7.42-4.49,15.52-7.1,24.05-8.43,4.83-.76,9.69-1.03,14.57-1.03,31.66.02,63.33,0,94.99.01,2.66,0,2.62-.33,2.62,2.57,0,10.88,0,21.75,0,32.63,0,.48-.02.96,0,1.44.03.91-.41,1.3-1.31,1.26-.64-.03-1.28,0-1.92,0-29.03,0-58.05,0-87.08,0-3.69,0-7.35.15-10.95,1-8.54,2.02-14.85,6.86-18.63,14.83-2.77,5.85-4.05,12.11-4.71,18.5-.18,1.79-.11,1.8,1.78,1.84.64.01,1.28,0,1.92,0,38.54,0,77.08,0,115.62,0,.48,0,.96,0,1.44,0,2.88.03,2.88-.41,2.88,2.84,0,10.08,0,20.15,0,30.23,0,.48-.02.96,0,1.44.02.88-.35,1.34-1.29,1.29-.64-.04-1.28,0-1.92,0-19.67,0-39.34,0-59.01,0Z"/>
      <path class="cls-1" d="M204.6.16c.13.94-.38,1.61-.68,2.33-24.93,59.92-49.87,119.84-74.83,179.75-1.56,3.74-.55,3.1-4.56,3.11-15.59.03-31.18.02-46.77,0-2.71,0-2.32.35-3.42-2.33C49.83,123.02,25.32,63.01.82,3,.47,2.14-.13,1.32.03.29.79-.15,1.6.05,2.37.05c14.87-.01,29.74-.01,44.62,0,2.87,0,2.35-.2,3.34,2.39,12.82,33.77,25.64,67.55,38.43,101.34,3.88,10.24,8.19,20.31,11.7,30.69.54,1.59.96,3.22,1.46,4.82.11.35.14.87.66.83.51-.03.52-.54.63-.9,2.15-7.12,4.92-14.03,7.56-20.97,14.8-38.93,30.39-77.54,45.58-116.31C156.81.73,157.28,0,158.84,0c14.87.07,29.74.04,44.62.05.38,0,.77.08,1.15.12Z"/>
      <path class="cls-1" d="M770.87,185.36c-15.43,0-30.86.03-46.3-.01-9.1-.02-18.01-1.36-26.56-4.54-16.85-6.28-28.32-18.13-35.3-34.52-4.27-10.02-6.46-20.56-7.71-31.32-1.26-10.83-1.4-21.71-.91-32.58.65-14.37,2.73-28.49,8.16-41.93,5.34-13.22,13.72-23.93,26.11-31.26,7.32-4.33,15.28-6.85,23.65-8.14,4.99-.77,10.01-1.02,15.05-1.01,31.34.02,62.69,0,94.03.01,3.25,0,2.9-.35,2.9,2.99.01,10.96,0,21.91,0,32.87,0,.56-.02,1.12,0,1.68.02.79-.35,1.18-1.14,1.18-.72,0-1.44.01-2.16.01-28.71,0-57.41,0-86.12,0-4.16,0-8.31.13-12.38,1.14-7.58,1.89-13.19,6.25-16.79,13.2-2.88,5.56-4.18,11.55-4.83,17.71-1.4,13.24-1.38,26.5-.41,39.77.43,5.91,1.23,11.77,3.26,17.39,1.23,3.41,2.82,6.62,5.15,9.42,4.54,5.46,10.53,8.14,17.43,9.08,2.86.39,5.73.47,8.61.47,28.79-.01,57.57,0,86.36,0,3.36,0,3.02-.4,3.02,3.12.01,10.72,0,21.43,0,32.15,0,.64-.03,1.28,0,1.92.04.94-.44,1.27-1.32,1.23-.64-.03-1.28,0-1.92,0-16.63,0-33.26,0-49.89,0h0Z"/>
      <path class="cls-1" d="M471.57.04c30.55,0,61.09,0,91.64,0,3.31,0,2.96-.33,2.96,2.94.01,10.64,0,21.27,0,31.91,0,.24,0,.48,0,.72-.02,2.31-.02,2.33-2.38,2.33-17.11,0-34.23,0-51.34,0-5.36,0-10.72,0-16.07,0-2.01,0-2.01.03-2.05,1.93-.01.64,0,1.28,0,1.92,0,46.79,0,93.58,0,140.37,0,3.65.4,3.19-3.18,3.19-13.11.02-26.23.01-39.34,0-3.51,0-3.12.38-3.12-3.02,0-47.03,0-94.06-.01-141.09,0-3.8.55-3.3-3.29-3.31-21.67-.02-43.34,0-65.01,0-.4,0-.8,0-1.2,0-2.27-.02-2.28-.02-2.31-2.19-.01-1.2,0-2.4,0-3.6,0-9.68,0-19.36,0-29.03,0-.64.02-1.28,0-1.92-.01-.79.33-1.18,1.14-1.16.64.02,1.28,0,1.92,0,30.55,0,61.09,0,91.64,0Z"/>
      <g>
        <path class="cls-2" d="M559.7,232.11c-5.54-5.71-13.09-8.99-20.72-8.99h-.02c-7.5,0-14.96,3.2-20.48,8.76-5.46,5.51-8.43,12.64-8.36,20.08.14,16.15,12.86,28.84,28.96,28.89h.1c7.71,0,14.99-3.14,20.52-8.85,5.36-5.54,8.29-12.85,8.04-20.06.21-7.12-2.72-14.35-8.04-19.83ZM561.47,252.3v.04c.06,5.78-2.38,11.53-6.7,15.78-4.41,4.34-10.16,6.64-16.31,6.47-12.59-.35-22.28-10.49-22.06-23.09.11-5.97,2.59-11.57,6.99-15.78,4.25-4.06,9.72-6.27,15.46-6.27.2,0,.41,0,.61,0,12.54.34,22.2,10.38,22,22.84Z"/>
        <path class="cls-2" d="M350.24,224.21c-3.21-.35-6.47-.29-9.62-.24-1.48.02-2.96.05-4.42.03-.81.02-1.48.24-1.95.73-.48.5-.69,1.19-.63,2.04.02.29.01.57,0,.86v48.45s0,.49,0,.49c0,.28.01.56,0,.84-.06.84.15,1.51.62,2.01.71.75,1.67.73,2.25.73h.22s.17,0,.17,0c.62.01,1.54.03,2.26-.7.48-.49.7-1.16.67-2.01-.04-1.08-.03-2.19-.02-3.27,0-.49,0-.98,0-1.47v-10.92c.29,0,.58,0,.86,0,1.88.02,3.65.03,5.47-.05.86-.04,1.27.16,1.75.94,2.31,3.71,4.72,7.45,7.04,11.06l2.38,3.71c1.29,2.01,2.28,2.76,3.79,2.76.77,0,1.68-.2,2.83-.53l1.94-.56-11.97-18.5c.14-.05.27-.1.4-.16,7.12-3.31,11.08-8.73,11.77-16.09.92-9.74-6.47-19.17-15.82-20.19ZM339.79,239.28c0-2.97,0-5.93,0-8.9,0-.07,0-.14,0-.23.08,0,.15,0,.2,0,1.03.02,2.06,0,3.1-.02,2.25-.04,4.37-.08,6.48.29,6.49,1.15,10.69,6.81,10.23,13.77-.4,5.94-5.64,10.98-11.68,11.24-2.15.09-4.36.08-6.5.06h-1.58c-.07,0-.16,0-.24-.01,0-.07,0-.14,0-.2-.01-2.98,0-5.96,0-8.94v-3.52s0-3.56,0-3.56Z"/>
        <path class="cls-2" d="M964.28,225.84c-4.07-1.52-8.21-1.84-13.17-1.84-1.42.01-2.28-.02-2.96.68-.62.63-.6,1.41-.58,2.16,0,.18,0,.38,0,.62,0,5.71,0,11.42,0,17.12v7.34s0,19.19,0,19.19c0,.62,0,1.23,0,1.85.01,1.43.02,2.9-.03,4.34-.01.35-.05,1.42.74,2.19.62.61,1.44.7,1.94.7.13,0,.24,0,.31-.01.8-.05,1.61-.07,2.42-.09,1.34-.03,2.73-.07,4.12-.22,6.73-.73,12.03-3.02,16.2-7.01,7.52-7.2,10.34-16.04,8.39-26.27-1.91-10.04-7.93-17.21-17.39-20.75ZM953.78,230.71c0-.1,0-.21,0-.32.09,0,.19,0,.28,0,6.65.19,11.79,2.19,15.69,6.11,4.36,4.38,6.59,10.62,6.13,17.12-.46,6.49-3.54,12.34-8.46,16.05-2.73,2.06-6.12,3.34-10.36,3.9-.77.1-1.54.16-2.32.22-.32.02-.63.05-.96.08,0-.2,0-.39,0-.59v-27c0-5.2,0-10.39,0-15.59Z"/>
        <path class="cls-2" d="M632.68,225.05c-3.5-.89-7-1-10.58-1.03-1.11-.01-1.99-.02-2.68.66-.68.68-.68,1.54-.69,2.64,0,6.09,0,12.18,0,18.27v6.45s0,18.36,0,18.36c0,2.2,0,4.4,0,6.6,0,1,.01,1.87.69,2.53.57.56,1.28.64,2.1.64.16,0,.32,0,.48,0h.52c1.83-.04,3.72-.07,5.59-.27,6.13-.63,10.94-2.47,14.71-5.62,8.99-7.51,12.37-17.45,9.76-28.76-2.46-10.69-9.35-17.76-19.92-20.45ZM624.82,272.19c.06-.51.12-1.04.12-1.57-.03-4.57-.02-9.14-.02-13.71v-4.99s0-5.51,0-5.51c0-5.2,0-10.4,0-15.6,0-.13,0-.28,0-.42.14,0,.3,0,.46,0,1.92.03,3.91.29,6.08.8,9.4,2.2,15.98,11.26,15.65,21.54-.19,5.87-2.25,10.77-6.28,14.97-3.19,3.32-7.35,5.24-12.71,5.85-.48.06-.96.16-1.42.27-.67.15-1.67.38-1.89.15-.18-.19-.05-1.27,0-1.8Z"/>
        <path class="cls-2" d="M918.48,224.7c-.77-.76-1.87-.73-2.22-.73h-.2c-2.62.06-3.09.93-3.09,3.33,0,11.03,0,22.06,0,33.1,0,1.36-.04,2.81-.33,4.22-1.19,5.66-6.52,9.91-12.42,9.82-5.97-.06-11.41-4.52-12.37-10.16-.2-1.16-.24-2.36-.24-3.81-.01-7.2-.01-14.41-.01-21.61v-11.48c0-.1,0-.21,0-.32.03-.64.07-1.6-.67-2.35-.51-.52-1.27-.77-2.19-.74h-.21c-2.45.07-3.13.78-3.13,3.31,0,11.75,0,23.5,0,35.25,0,.62.04,1.25.11,1.85.98,8.12,8.38,16.25,18.89,16.25.64,0,1.29-.03,1.95-.09,9.28-.87,16.85-9.28,16.87-18.75,0-3.97,0-7.94,0-11.92v-9.28c0-4.52-.01-9.04.02-13.56,0-.73-.08-1.66-.77-2.34Z"/>
        <path class="cls-2" d="M1165.38,230.13h11.19s.27-1.17.27-1.17c.31-1.37.32-2.52.02-3.64l-.23-.73-.68-.28c-.14-.07-.42-.21-.82-.21l-7.47-.03c-5.9-.02-11.8-.04-17.7-.08-.88-.02-1.58.25-2.07.77-.73.78-.65,1.81-.62,2.15.03.33.02.66,0,1,0,.19,0,.37,0,.56v9.67c0,11.97,0,23.94.02,35.91,0,.32-.05.71-.1,1.13-.16,1.3-.39,3.09.98,4.31.75.67,1.67.85,2.56.85.51,0,1.01-.06,1.48-.11.41-.05.8-.09,1.13-.09h.01c6.72.02,13.44.02,20.15,0,1.33,0,2.21,0,2.9-.69.66-.66.65-1.49.65-2.45,0-2.86-1.32-3.01-3.62-3.03h-.84s-5.48,0-5.48,0c-4.38,0-8.75,0-13.12,0-.14,0-.3,0-.45,0,0-.16,0-.33,0-.48-.01-6-.01-11.99,0-17.98,0-.12,0-.26,0-.4.17,0,.36,0,.52,0,2.9,0,5.8,0,8.7,0,3.42,0,6.83,0,10.25,0,.19-.01.35,0,.52.02.68.03,1.52.07,2.39-.29l.39-.17.25-.34c.53-.74.51-1.48.5-1.92v-.14c0-2.52-.69-3.21-3.16-3.23-1.68-.01-3.36-.01-5.05,0h-15.3s0-3.9,0-3.9c0-5.08,0-10.04-.02-14.99h.03c3.94.01,7.88.01,11.82,0Z"/>
        <path class="cls-2" d="M285.89,223.37l-19.86,54.55-.64,1.77,1.88.23c3.76.46,4.54.26,5.79-3.19l1.48-4.04c1.46-3.99,2.97-8.11,4.4-12.19.23-.66.26-.68.97-.67,3.34.07,6.73.06,10,.05,1.26,0,2.52,0,3.78,0,.62,0,1.29,0,1.57.04.12.22.32.77.52,1.3l1.57,4.29c1.46,3.97,2.97,8.07,4.39,12.13.6,1.71,1.67,2.57,3.19,2.57.21,0,.44-.02.67-.05.05,0,.11,0,.17,0,.46.02,1.67.08,2.45-1.14l.41-.63-20.15-55.43-2.56.41ZM292.95,253.51h-11.42l5.71-15.69c1.32,3.5,2.56,6.95,3.77,10.32.64,1.79,1.29,3.58,1.94,5.38Z"/>
        <path class="cls-2" d="M463.29,223.31l-19.88,54.61-.63,1.75,1.85.25c3.73.5,4.57.31,5.81-3.12l1.34-3.69c1.49-4.1,3.04-8.35,4.52-12.54.26-.74.31-.74.93-.72,5.03.11,9.97.11,14.69,0,.69-.02.79,0,1.09.85.96,2.73,1.94,5.46,2.93,8.18,1.03,2.83,2.05,5.66,3.04,8.5.66,1.91,1.8,2.86,3.34,2.86.27,0,.54-.03.83-.09h.11c.41.02,1.68.06,2.38-1.35l.28-.57-20.03-55.1-2.59.19ZM470.35,253.57h-11.47l5.74-15.77,5.72,15.77Z"/>
        <path class="cls-2" d="M833.66,223.32l-20.51,56.35,1.85.25c3.72.5,4.56.3,5.81-3.12l2.11-5.79c1.23-3.4,2.47-6.79,3.71-10.18.12-.32.26-.71.36-.93.22-.02.57-.02.89-.02,2.14,0,4.28,0,6.42,0,2.57,0,5.15,0,7.72,0,.34,0,.76,0,1.05.01.03.09.06.18.09.27.08.23.16.49.28.8,1.97,5.37,4.01,10.93,5.93,16.42.67,1.91,1.81,2.86,3.34,2.86.26,0,.53-.03.81-.08h.11c.41.03,1.65.09,2.38-1.26l.32-.59-20.04-55.12-2.61.15ZM839.37,253.68c-.38-.02-.77-.04-1.16-.04-.15,0-.3,0-.45,0-1.18.05-2.41.04-3.6.02-.54,0-1.08-.01-1.62-.01h-3.29c1.77-5.02,3.7-10.27,5.88-15.5l5.65,15.54c-.45.02-.91,0-1.42-.03Z"/>
        <path class="cls-2" d="M237.06,270.42c-7.84,5.61-18.31,5.63-26.07.07-8.08-5.8-11.31-15.02-8.62-24.65,1.99-7.15,7.17-12.64,14.22-15.05,7.06-2.42,14.87-1.18,20.88,3.3.24.18.44.34.61.48,1.9,1.53,2.81.83,4.38-.66l.2-.19c.18-.17.33-.37.48-.57l.89-1.12-.84-.94c-4.08-4.58-10.85-7.48-18.09-7.76-7.86-.3-15.28,2.47-20.86,7.81-5.95,5.7-9.17,13.27-9.06,21.31.11,8.06,3.54,15.56,9.65,21.11,5.2,4.72,11.91,7.26,19.08,7.26.63,0,1.27-.02,1.91-.06,7.08-.44,13.56-3.34,17.35-7.75l.88-1.02-.92-.98c-2.38-2.54-3.23-2.62-6.06-.59Z"/>
        <path class="cls-2" d="M1103.42,223.98c-2.15.09-4.37.07-6.51.05-1.17-.01-2.34-.02-3.51-.02-.15,0-.28,0-.42-.01-.64-.03-1.51-.07-2.39.39l-.54.28-.19.58c-.3.9-.27,1.74-.23,2.48,0,.2.02.4.02.6,0,13.57,0,27.13,0,40.7v6.78c0,.16,0,.33,0,.49,0,.27.02.54,0,.81-.03.36-.14,1.44.61,2.26.71.78,1.73.82,2.14.82h.07c2.62-.01,3.31-.7,3.36-3.31,0-.29,0-.58,0-.88v-4.33c0-2.91,0-5.82,0-8.73v-.31c0-.29,0-.59,0-.84.04,0,.07,0,.1,0,.32,0,.71.02,1.17,0,1.98-.03,3.97-.02,5.96,0,.06,0,.12,0,.18,0,5.22,0,9.78-1.94,13.55-5.78,5.27-5.37,6.83-13.33,3.97-20.28-2.87-6.98-10.34-12.03-17.32-11.75ZM1095.81,239.57c0-3.03,0-6.05,0-9.08,0-.1,0-.22,0-.34.13,0,.25,0,.34,0,1.01.02,2.02,0,3.03-.01,2.19-.04,4.26-.07,6.31.28,6.39,1.09,10.73,6.75,10.32,13.46-.42,6.89-6.41,11.61-11.59,11.61-.05,0-.1,0-.15,0-2.39-.04-4.95-.03-8.28.04.03-3.04.03-6.09.02-9.13v-6.81Z"/>
        <path class="cls-2" d="M686.94,230.14c3.98,0,7.97,0,11.95,0h5.9c.85,0,1.7,0,2.54,0,1.19-.01,1.98-.51,2.34-1.49.45-1.22.36-2.38-.25-3.27-.61-.87-1.64-1.35-2.9-1.35-5.94,0-11.88,0-17.82,0h-4.72s-.55,0-.55,0c-1.16,0-1.97-.02-2.64.66-.68.68-.68,1.52-.68,2.8v18.51s0,12.79,0,12.79c0,5.99,0,11.98,0,17.97,0,2.75.69,3.43,3.48,3.44,3.26,0,6.51,0,9.77,0h6.4c2.36,0,4.72-.01,7.08,0,.03,0,.05,0,.08,0,.72,0,1.53-.1,2.16-.73.5-.49.74-1.17.74-2.07v-.2c0-2.49-.7-3.17-3.28-3.18h-.58c-6.42-.02-13.05-.03-19.58.02-.05,0-.1,0-.14,0,0-.03,0-.06,0-.09.05-3.07.04-6.18.03-9.19v-3.54c0-.59,0-1.19,0-1.78.01-1.4.03-2.84-.04-4.28,0-.01,0-.02,0-.03.01,0,.03,0,.04,0,.47.05.93.04,1.34.02.16,0,.33,0,.49,0h5.01c4.48,0,8.97,0,13.46,0,2.17,0,3.1-.41,3.23-2.87v-.24c.03-.35.09-1.42-.66-2.21-.75-.79-1.81-.79-2.4-.78-6.55.03-13.1.02-19.65.01h-.24c-.18,0-.38,0-.57,0,0-.13,0-.26,0-.37-.01-5.99-.01-11.99,0-17.98,0-.16,0-.35,0-.52.21,0,.44,0,.66,0Z"/>
        <path class="cls-2" d="M776.54,244.85c-2.9-1.07-5.14-2.47-6.87-4.3-2.12-2.23-2.29-5.93-.39-8.42,1.34-1.76,3.35-2.74,5.5-2.67,2.22.07,4.23,1.22,5.52,3.15,1.44,2.16,2.21,2.39,4.55,1.36.26-.11.5-.26.74-.41l1.2-.7-.32-1.12c-1.5-5.3-7.75-9.2-13.38-8.34-5.49.83-9.21,3.96-10.75,9.03-1.58,5.18-.15,9.9,4.13,13.65,2.1,1.84,4.63,3.25,7.96,4.46,2.82,1.02,5.39,2.58,7.64,4.63,3.57,3.25,4.69,8.39,2.8,12.79-1.88,4.38-6.29,7-11.25,6.65-4.61-.32-8.56-3.65-9.85-8.29-.02-.08-.03-.17-.04-.27-.07-.56-.22-1.72-1.45-2.34l-.53-.27-.76.22c-.2.05-.4.11-.6.18-2.8,1.04-3.21,1.83-2.37,4.71.93,3.21,2.78,5.95,5.65,8.35,3.13,2.63,6.98,3.92,10.84,3.92,4.61,0,9.24-1.84,12.67-5.45,6.02-6.33,6.29-16.43.62-23-2.88-3.33-6.57-5.79-11.27-7.52Z"/>
        <path class="cls-2" d="M1015.12,230.14c.11,0,.21,0,.31,0,2.51-.01,5.01-.01,7.52,0h5.3c2.52,0,5.04,0,7.56,0h.16c.49.02,1.77.08,2.43-1.23.55-1.08.52-2.32-.09-3.32-.6-.98-1.67-1.57-2.86-1.57-7.76-.01-15.51-.01-23.27,0-2.77,0-3.26.89-3.27,3.38,0,6.01,0,12.02,0,18.03v6.44s0,6.51,0,6.51c0,6.15,0,12.3,0,18.44,0,2.65.69,3.34,3.32,3.34,3.49,0,6.97,0,10.46,0,2.23,0,4.47,0,6.7,0h6.82s0,0,0,0c1.29,0,2.19-.8,2.38-2.13.16-1.08.26-2.21-.47-3.07-.74-.87-1.87-.95-3.06-.96-.39,0-.79,0-1.18,0h-.51s-4.66,0-4.66,0c-4.52,0-9.05,0-13.58.02-.02,0-.03,0-.05,0,.05-1.01.04-2.02.03-2.99,0-.43-.01-.86-.01-1.29v-4.07c0-3.44,0-6.87,0-10.31,0-.06,0-.14,0-.22.09,0,.19,0,.27,0,1.16-.02,2.32-.01,3.48,0h1.54s4.05,0,4.05,0c3.77,0,7.53,0,11.29.02.63,0,1.53-.07,2.19-.74.74-.75.72-1.79.71-2.13v-.15c-.05-2.41-.73-3.07-3.16-3.08-3.58,0-7.15,0-10.74,0-3.06,0-6.11,0-9.17,0-.14,0-.3,0-.46,0,0-.09,0-.18,0-.25-.02-6.15-.02-12.31,0-18.46,0-.05,0-.1,0-.16Z"/>
        <path class="cls-2" d="M1233.58,224.71c-.69-.7-1.59-.7-2.73-.7-8.87,0-17.75-.01-26.62,0-2.24,0-2.92.66-3.02,2.93v.19c-.03.36-.08,1.47.69,2.26.69.71,1.63.78,2.36.77,2.66-.05,5.37-.04,8-.03h1.8c.19,0,.41,0,.6.01,0,.19,0,.4.01.6,0,.37,0,.75,0,1.12v10.78c0,11.38,0,22.75,0,34.13,0,2.68.68,3.38,3.29,3.38h.02c.32,0,.64-.03.95-.07l1.21-.11.36-.82c.44-1.01.39-1.94.35-2.7,0-.19-.02-.37-.02-.56.01-12.04.01-24.07,0-36.11v-8.02c0-.17,0-.33,0-.5,0-.37.02-.75,0-1.16,0,0,.02,0,.03,0,1.78.04,3.56.03,5.33.02h7.79s.19-1.8.19-1.8c.04-.32.07-.57.07-.82.01-1.23.03-2.12-.66-2.81Z"/>
        <path class="cls-2" d="M418.7,223.98h-.03c-9.1.05-18.29.05-27.31,0h-.03c-2.67,0-2.77,2.15-2.8,2.85v.21c-.05.66-.02,1.62.68,2.34.78.81,1.92.78,2.3.77,2.29-.05,4.63-.04,6.89-.03.89,0,1.78,0,2.66,0h.62c.08,0,.17,0,.25,0,0,.23,0,.51,0,.8,0,5.25,0,10.5,0,15.76v6.3s0,6.61,0,6.61c0,5.79,0,11.58,0,17.36,0,2.41.64,3.1,2.94,3.22h.2c.09.02.18.02.27.02.85,0,1.51-.23,2-.7.82-.78.81-1.86.81-2.58-.02-5.97-.02-11.95-.01-17.92v-5.33s0-6.51,0-6.51c0-5.42,0-10.84,0-16.27,0-.25,0-.52,0-.75.21,0,.45,0,.67,0h2.31c2.45-.03,4.99-.04,7.47.03.36.01,1.44.04,2.21-.73.77-.77.75-1.85.74-2.37-.02-.84-.07-3.08-2.86-3.08Z"/>
        <path class="cls-2" d="M454.41,221.38l1.24.22c2.57.45,3.19.19,4.47-1.91.41-.67.42-.7,1.26-.42.8.26,1.53.78,2.31,1.34.26.19.53.38.8.56,1.42.95,2.88,1.44,4.26,1.44.64,0,1.27-.11,1.86-.32,1.86-.68,3.26-2.37,3.95-4.77.1-.35.15-.69.19-1.01.02-.14.04-.29.07-.45l.24-1.42-1.41-.3c-1.21-.26-3.48-.74-4.6,1.99-.19.46-.32.58-.32.59-.04,0-.28.04-1.09-.26-.64-.23-1.24-.66-1.87-1.12l-.43-.31c-3.07-2.15-5.37-1.98-6.75-1.46-1.38.52-3.22,1.9-4.12,5.54-.08.32-.06.6-.05.82v1.26Z"/>
        <path class="cls-2" d="M898.69,219.94c.98,0,1.56-.22,2.55-.97,1.63-1.23,3.26-2.48,4.88-3.73l2.71-2.09-.58-2.56h-2.42s-3.04,0-3.04,0c-.44,0-1.53,0-2.26.89-.53.63-1.08,1.24-1.64,1.86-1.15,1.27-2.35,2.58-3.35,4.16l-1.34,2.09,2.71.24c.74.07,1.3.12,1.77.12Z"/>
      </g>
    </g>
  </g>
</svg>